<svg width="1262" height="208" viewBox="0 0 1262 208" fill="none" xmlns="http://www.w3.org/2000/svg">
<g clip-path="url(#clip0_83_557)">
<path d="M316.665 313.662C313.471 313.662 310.712 312.5 308.388 310.177C306.065 307.854 304.903 305.094 304.903 301.9V20.4751C304.903 17.2804 306.065 14.5213 308.388 12.1979C310.712 9.87448 313.471 8.71277 316.665 8.71277H405.532C408.727 8.71277 411.486 9.87448 413.809 12.1979C416.132 14.5213 417.294 17.2804 417.294 20.4751V301.9C417.294 305.094 416.132 307.854 413.809 310.177C411.486 312.5 408.727 313.662 405.532 313.662H316.665Z" fill="white"/>
<path d="M11.7618 309.306C8.56725 309.306 5.80831 308.144 3.48498 305.82C1.16166 303.497 0 300.738 0 297.543V16.1187C0 12.9239 1.16166 10.1649 3.48498 7.84146C5.80831 5.51803 8.56725 4.35632 11.7618 4.35632H94.9658C98.1604 4.35632 100.919 5.51803 103.243 7.84146C105.566 10.1649 106.728 12.9239 106.728 16.1187V102.376L155.953 13.9404C157.405 11.617 159.486 9.43881 162.294 7.40582C165.053 5.37282 168.731 4.35632 173.378 4.35632H269.651C272.264 4.35632 274.491 5.32442 276.427 7.16379C278.315 9.05157 279.234 11.2782 279.234 13.9404C279.234 15.683 278.799 17.2804 277.927 18.7325L199.515 150.296L285.333 294.929C286.204 296.091 286.64 297.688 286.64 299.721C286.64 302.335 285.672 304.61 283.833 306.498C281.945 308.386 279.718 309.306 277.056 309.306H177.734C171.926 309.306 167.618 307.95 164.908 305.143C162.149 302.384 160.454 300.448 159.874 299.286L106.728 204.316V297.543C106.728 300.738 105.566 303.497 103.243 305.82C100.919 308.144 98.1604 309.306 94.9658 309.306H11.7618Z" fill="white"/>
<path d="M579.959 313.662C552.079 313.662 527.394 309.596 505.903 301.464C484.413 293.332 467.326 280.553 454.693 263.128C442.06 245.702 435.139 223.194 434.025 195.603C433.735 183.696 433.59 170.917 433.59 157.267C433.59 143.617 433.735 130.547 434.025 118.059C435.187 91.0491 442.205 68.8314 455.129 51.4057C468.052 33.9801 485.332 21.056 506.968 12.6336C528.604 4.2112 552.951 0 579.959 0C598.546 0 616.455 2.1298 633.783 6.2926C651.063 10.5038 666.648 17.1352 680.588 26.1385C694.528 35.1418 705.612 46.7105 713.889 60.7478C722.166 74.8336 726.425 91.7752 726.764 111.524C726.764 114.138 725.796 116.413 723.957 118.301C722.069 120.189 719.843 121.108 717.18 121.108H628.313C623.667 121.108 620.23 120.189 618.052 118.301C615.874 116.413 613.938 113.17 612.195 108.475C609.001 99.1811 604.644 92.9369 599.127 89.7422C593.609 86.5475 587.074 84.9502 579.524 84.9502C569.94 84.9502 562.292 87.5156 556.629 92.5981C550.966 97.6806 547.82 106.926 547.239 120.237C546.368 144.052 546.368 168.448 547.239 193.425C547.82 206.785 550.966 216.03 556.629 221.064C562.292 226.147 569.94 228.712 579.524 228.712C587.074 228.712 593.657 226.969 599.32 223.484C604.983 219.999 609.243 213.9 612.195 205.187C613.647 200.25 615.535 196.91 617.858 195.168C620.182 193.425 623.667 192.554 628.313 192.554H717.18C719.794 192.554 722.021 193.522 723.957 195.361C725.845 197.249 726.764 199.476 726.764 202.138C726.474 221.887 722.214 238.829 713.889 252.914C705.612 267 694.528 278.569 680.588 287.524C666.648 296.527 651.014 303.158 633.783 307.321C616.455 311.532 598.546 313.662 579.959 313.662Z" fill="white"/>
<path d="M984.121 294.929L898.303 150.296L976.716 18.7325C977.587 17.2804 978.022 15.683 978.022 13.9404C978.022 11.3266 977.103 9.09998 975.215 7.2122C973.327 5.32442 971.052 4.35632 968.439 4.35632H872.166C867.519 4.35632 863.841 5.37282 861.082 7.40582C858.323 9.43881 856.193 11.617 854.741 13.9404L811.179 92.2108L805.516 102.376V16.1187C805.516 12.9239 804.354 10.1649 802.031 7.84146C799.707 5.51803 796.949 4.35632 793.754 4.35632H710.55C707.355 4.35632 704.596 5.51803 702.273 7.84146C701.983 8.18029 701.692 8.47072 701.402 8.80955C701.111 9.14838 700.869 9.48722 700.676 9.82605C700.434 10.1649 700.24 10.5521 700.047 10.891C699.853 11.2782 699.708 11.617 699.563 12.0043C714.567 22.3144 726.862 35.3837 736.01 50.97C745.932 67.9116 751.16 88.1932 751.498 111.234C751.498 119.221 748.498 126.481 743.028 131.999C737.51 137.469 730.25 140.47 722.554 140.47H698.788V173.192H722.554C730.25 173.192 737.51 176.193 742.98 181.663C748.498 187.229 751.498 194.49 751.498 202.138C751.16 225.469 745.932 245.75 736.01 262.692C726.862 278.278 714.567 291.347 699.563 301.658C699.708 302.045 699.853 302.432 700.047 302.771C700.434 303.497 700.869 304.223 701.402 304.852C701.692 305.191 701.983 305.482 702.273 305.82C704.596 308.144 707.355 309.306 710.55 309.306H793.754C796.949 309.306 799.707 308.144 802.031 305.82C804.354 303.497 805.516 300.738 805.516 297.543V204.316L811.179 214.432L858.662 299.286C859.243 300.448 860.937 302.432 863.696 305.191C866.455 307.95 870.714 309.306 876.522 309.306H975.844C978.458 309.306 980.733 308.386 982.621 306.498C984.508 304.61 985.428 302.335 985.428 299.721C985.428 297.688 984.992 296.091 984.121 294.929Z" fill="white"/>
<path d="M1117.37 313.662C1085.14 313.662 1058.56 309.306 1037.65 300.593C1016.74 291.88 1001.06 280.408 990.606 266.177C980.151 251.946 974.634 236.844 974.053 220.87C974.053 218.257 974.972 216.03 976.86 214.094C978.748 212.206 980.974 211.286 983.588 211.286H1066.36C1071 211.286 1074.54 211.916 1077.05 213.222C1079.52 214.529 1082.18 216.369 1085.14 218.644C1088.04 220.677 1090.99 222.516 1094.04 224.065C1097.09 225.662 1100.58 226.824 1104.5 227.55C1108.42 228.276 1112.68 228.664 1117.37 228.664C1127.25 228.664 1135.14 227.55 1141.09 225.372C1147.04 223.194 1150.04 220.241 1150.04 216.466C1150.04 212.98 1148.35 210.076 1145.01 207.753C1141.67 205.429 1135.91 203.348 1127.78 201.46C1119.65 199.572 1108.32 197.733 1093.8 196.039C1070.86 192.844 1050.96 187.471 1034.12 179.92C1017.28 172.369 1004.26 162.01 995.156 148.747C986.008 135.533 981.458 119.317 981.458 100.149C981.458 80.4001 987.025 62.9745 998.206 47.8722C1009.39 32.77 1024.92 21.0076 1044.82 12.5852C1064.71 4.2112 1087.9 0 1114.32 0C1136.1 0 1155.42 2.80747 1172.26 8.47081C1189.11 14.1342 1203.34 21.5401 1214.95 30.6885C1226.57 39.837 1235.43 49.6632 1241.53 60.1186C1247.62 70.574 1250.82 80.5937 1251.11 90.1779C1251.11 92.7917 1250.14 95.0667 1248.3 96.9545C1246.41 98.8423 1244.28 99.762 1241.96 99.762H1154.84C1150.77 99.762 1147.48 99.1811 1145.06 98.0194C1142.59 96.8577 1140.03 95.1151 1137.41 92.7917C1135.96 91.3396 1133.25 89.6938 1129.33 87.7576C1125.41 85.8698 1120.42 84.9502 1114.27 84.9502C1107.01 84.9502 1101.69 86.0635 1098.4 88.2417C1095.06 90.4199 1093.37 93.421 1093.37 97.1481C1093.37 99.762 1094.67 102.231 1097.29 104.554C1099.9 106.877 1104.69 108.91 1111.66 110.653C1118.63 112.396 1128.65 114.138 1141.72 115.881C1170.76 119.366 1194.04 124.981 1211.66 132.629C1229.23 140.325 1242.01 150.587 1250 163.366C1257.98 176.145 1262 191.973 1262 210.851C1262 232.052 1255.66 250.349 1243.03 265.742C1230.39 281.134 1213.16 292.945 1191.38 301.222C1169.6 309.499 1144.96 313.662 1117.37 313.662Z" fill="white"/>
</g>
<defs>
<clipPath id="clip0_83_557">
<rect width="1262" height="313.662" fill="white"/>
</clipPath>
</defs>
</svg>
