<svg width="367" height="112" viewBox="0 0 367 112" fill="none" xmlns="http://www.w3.org/2000/svg">
<g clip-path="url(#clip0_83_553)">
<path d="M88.074 112C87.1855 112 86.4182 111.674 85.772 111.022C85.1258 110.37 84.8027 109.596 84.8027 108.7V29.7443C84.8027 28.848 85.1258 28.074 85.772 27.4221C86.4182 26.7703 87.1855 26.4443 88.074 26.4443H112.791C113.679 26.4443 114.446 26.7703 115.093 27.4221C115.739 28.074 116.062 28.848 116.062 29.7443V108.7C116.062 109.596 115.739 110.37 115.093 111.022C114.446 111.674 113.679 112 112.791 112H88.074Z" fill="white"/>
<path d="M3.27132 110.778C2.38281 110.778 1.61546 110.452 0.969279 109.8C0.323093 109.148 0 108.374 0 107.478V28.5222C0 27.6259 0.323093 26.8518 0.969279 26.1999C1.61546 25.5481 2.38281 25.2222 3.27132 25.2222H26.4128C27.3013 25.2222 28.0687 25.5481 28.7149 26.1999C29.3611 26.8518 29.6842 27.6259 29.6842 28.5222V52.7222L43.3752 27.9111C43.7791 27.2592 44.358 26.6481 45.1388 26.0777C45.9061 25.5074 46.9292 25.2222 48.2216 25.2222H74.9979C75.7249 25.2222 76.3441 25.4938 76.8826 26.0098C77.4077 26.5395 77.6634 27.1641 77.6634 27.9111C77.6634 28.3999 77.5423 28.8481 77.3 29.2555L55.4912 66.1666L79.3597 106.744C79.602 107.07 79.7232 107.518 79.7232 108.089C79.7232 108.822 79.4539 109.46 78.9423 109.99C78.4173 110.52 77.7981 110.778 77.0576 110.778H49.4332C47.8177 110.778 46.6196 110.397 45.8657 109.61C45.0984 108.836 44.6272 108.293 44.4656 107.967L29.6842 81.3222V107.478C29.6842 108.374 29.3611 109.148 28.7149 109.8C28.0687 110.452 27.3013 110.778 26.4128 110.778H3.27132Z" fill="white"/>
<path d="M161.304 112C153.55 112 146.684 110.859 140.707 108.578C134.73 106.296 129.978 102.711 126.464 97.8222C122.951 92.9333 121.026 86.6185 120.716 78.8778C120.635 75.537 120.595 71.9519 120.595 68.1222C120.595 64.2926 120.635 60.6259 120.716 57.1222C121.039 49.5444 122.991 43.3111 126.585 38.4222C130.18 33.5333 134.986 29.9074 141.003 27.5444C147.021 25.1815 153.793 24 161.304 24C166.474 24 171.455 24.5975 176.274 25.7654C181.08 26.9469 185.415 28.8074 189.292 31.3333C193.169 33.8593 196.252 37.1049 198.554 41.0432C200.856 44.9951 202.041 49.7481 202.135 55.2889C202.135 56.0222 201.866 56.6605 201.354 57.1901C200.829 57.7198 200.21 57.9778 199.47 57.9778H174.753C173.461 57.9778 172.505 57.7198 171.899 57.1901C171.293 56.6605 170.755 55.7506 170.27 54.4333C169.382 51.8259 168.17 50.0741 166.635 49.1778C165.101 48.2815 163.283 47.8333 161.183 47.8333C158.518 47.8333 156.391 48.5531 154.816 49.979C153.241 51.4049 152.366 53.9988 152.204 57.7333C151.962 64.4148 151.962 71.2593 152.204 78.2667C152.366 82.0148 153.241 84.6086 154.816 86.021C156.391 87.4469 158.518 88.1667 161.183 88.1667C163.283 88.1667 165.114 87.6778 166.689 86.7C168.264 85.7222 169.449 84.0111 170.27 81.5667C170.674 80.1815 171.199 79.2444 171.845 78.7556C172.492 78.2667 173.461 78.0222 174.753 78.0222H199.47C200.197 78.0222 200.816 78.2938 201.354 78.8099C201.88 79.3395 202.135 79.9642 202.135 80.7111C202.055 86.2519 200.87 91.0049 198.554 94.9568C196.252 98.9086 193.169 102.154 189.292 104.667C185.415 107.193 181.067 109.053 176.274 110.221C171.455 111.402 166.474 112 161.304 112Z" fill="white"/>
<path d="M273.713 106.744L249.845 66.1666L271.653 29.2555C271.896 28.8481 272.017 28.3999 272.017 27.9111C272.017 27.1777 271.761 26.553 271.236 26.0234C270.711 25.4938 270.078 25.2222 269.351 25.2222H242.575C241.283 25.2222 240.26 25.5074 239.492 26.0777C238.725 26.6481 238.133 27.2592 237.729 27.9111L225.613 49.8703L224.038 52.7222V28.5222C224.038 27.6259 223.715 26.8518 223.068 26.1999C222.422 25.5481 221.655 25.2222 220.766 25.2222H197.625C196.736 25.2222 195.969 25.5481 195.323 26.1999C195.242 26.295 195.161 26.3765 195.08 26.4716C195 26.5666 194.932 26.6617 194.879 26.7567C194.811 26.8518 194.757 26.9604 194.704 27.0555C194.65 27.1641 194.609 27.2592 194.569 27.3678C198.742 30.2604 202.162 33.9271 204.706 38.2999C207.466 43.053 208.92 48.7432 209.014 55.2074C209.014 57.4481 208.179 59.4851 206.658 61.0333C205.123 62.5678 203.104 63.4098 200.963 63.4098H194.354V72.5901H200.963C203.104 72.5901 205.123 73.432 206.645 74.9666C208.179 76.5283 209.014 78.5654 209.014 80.711C208.92 87.2567 207.466 92.9469 204.706 97.6999C202.162 102.073 198.742 105.739 194.569 108.632C194.609 108.741 194.65 108.849 194.704 108.944C194.811 109.148 194.932 109.352 195.08 109.528C195.161 109.623 195.242 109.705 195.323 109.8C195.969 110.452 196.736 110.778 197.625 110.778H220.766C221.655 110.778 222.422 110.452 223.068 109.8C223.715 109.148 224.038 108.374 224.038 107.478V81.3222L225.613 84.1604L238.819 107.967C238.981 108.293 239.452 108.849 240.219 109.623C240.987 110.397 242.171 110.778 243.787 110.778H271.411C272.138 110.778 272.771 110.52 273.296 109.99C273.821 109.46 274.077 108.822 274.077 108.089C274.077 107.518 273.956 107.07 273.713 106.744Z" fill="white"/>
<path d="M310.775 112C301.809 112 294.418 110.778 288.602 108.333C282.787 105.889 278.425 102.67 275.517 98.6778C272.609 94.6852 271.075 90.4481 270.913 85.9667C270.913 85.2333 271.169 84.6086 271.694 84.0654C272.219 83.5358 272.838 83.2778 273.565 83.2778H296.586C297.878 83.2778 298.861 83.4543 299.561 83.821C300.247 84.1876 300.988 84.7037 301.809 85.342C302.617 85.9123 303.438 86.4284 304.286 86.863C305.134 87.3111 306.103 87.637 307.194 87.8407C308.284 88.0444 309.469 88.1531 310.775 88.1531C313.521 88.1531 315.715 87.8407 317.371 87.2296C319.027 86.6185 319.862 85.7901 319.862 84.7309C319.862 83.7531 319.39 82.9383 318.462 82.2864C317.533 81.6346 315.931 81.0506 313.669 80.521C311.407 79.9914 308.257 79.4753 304.219 79C297.837 78.1037 292.305 76.5963 287.62 74.4778C282.935 72.3593 279.314 69.4531 276.783 65.7321C274.238 62.0247 272.973 57.4753 272.973 52.0975C272.973 46.5568 274.521 41.6679 277.631 37.4309C280.74 33.1938 285.062 29.8938 290.595 27.5309C296.128 25.1815 302.576 24 309.927 24C315.985 24 321.356 24.7877 326.041 26.3765C330.726 27.9654 334.684 30.0432 337.914 32.6099C341.145 35.1765 343.609 37.9333 345.305 40.8667C347.001 43.8 347.89 46.6111 347.971 49.3C347.971 50.0333 347.701 50.6716 347.19 51.2012C346.665 51.7309 346.073 51.9889 345.426 51.9889H321.194C320.064 51.9889 319.148 51.8259 318.475 51.5C317.788 51.1741 317.075 50.6852 316.348 50.0333C315.944 49.6259 315.19 49.1642 314.1 48.621C313.009 48.0914 311.623 47.8333 309.913 47.8333C307.894 47.8333 306.413 48.1457 305.497 48.7568C304.569 49.3679 304.097 50.2099 304.097 51.2556C304.097 51.9889 304.461 52.6815 305.188 53.3333C305.915 53.9852 307.248 54.5556 309.186 55.0444C311.125 55.5333 313.911 56.0222 317.546 56.5111C325.623 57.4889 332.099 59.0642 336.999 61.2099C341.886 63.3691 345.44 66.2481 347.661 69.8333C349.882 73.4185 351 77.8593 351 83.1556C351 89.1037 349.236 94.237 345.723 98.5555C342.209 102.874 337.416 106.188 331.358 108.51C325.3 110.832 318.448 112 310.775 112Z" fill="white"/>
</g>
<path d="M338.023 16C338.023 8.84482 343.845 3.02344 351 3.02344C358.155 3.02344 363.977 8.84482 363.977 16C363.977 23.1552 358.155 28.9766 351 28.9766C343.845 28.9766 338.023 23.1552 338.023 16ZM352.023 21V17.0234H356C356.271 17.0234 356.532 16.9156 356.724 16.7237C356.916 16.5317 357.023 16.2714 357.023 16C357.023 15.7286 356.916 15.4683 356.724 15.2763C356.532 15.0844 356.271 14.9766 356 14.9766H352.023V11C352.023 10.7286 351.916 10.4683 351.724 10.2763C351.532 10.0844 351.271 9.97656 351 9.97656C350.729 9.97656 350.468 10.0844 350.276 10.2763C350.084 10.4683 349.977 10.7286 349.977 11V14.9766H346C345.729 14.9766 345.468 15.0844 345.276 15.2763C345.084 15.4683 344.977 15.7286 344.977 16C344.977 16.2714 345.084 16.5317 345.276 16.7237C345.468 16.9156 345.729 17.0234 346 17.0234H349.977V21C349.977 21.2714 350.084 21.5317 350.276 21.7237C350.468 21.9156 350.729 22.0234 351 22.0234C351.271 22.0234 351.532 21.9156 351.724 21.7237C351.916 21.5317 352.023 21.2714 352.023 21Z" fill="#FFA52F" stroke="#FFA52F" stroke-width="0.046875"/>
<defs>
<clipPath id="clip0_83_553">
<rect width="351" height="88" fill="white" transform="translate(0 24)"/>
</clipPath>
</defs>
</svg>
