<svg width="28" height="28" viewBox="0 0 28 28" fill="none" xmlns="http://www.w3.org/2000/svg">
<path d="M19.8109 17.8851L19.7987 17.9014L19.8131 17.9158L24.9582 23.0609C25.1868 23.3168 25.3088 23.6505 25.2992 23.9935C25.2896 24.3368 25.1489 24.6633 24.9061 24.9061C24.6633 25.1489 24.3368 25.2896 23.9935 25.2992C23.6505 25.3088 23.3168 25.1868 23.0609 24.9582L17.9158 19.8131L17.9014 19.7987L17.8851 19.8109C16.24 21.0467 14.2376 21.7138 12.18 21.7116C6.92435 21.7116 2.64844 17.4356 2.64844 12.18C2.64844 6.92435 6.92435 2.64844 12.18 2.64844C17.4356 2.64844 21.7116 6.92435 21.7116 12.18C21.7138 14.2376 21.0467 16.24 19.8109 17.8851ZM5.33156 12.18V12.18C5.33374 13.9957 6.05597 15.7363 7.33982 17.0202C8.62368 18.304 10.3643 19.0263 12.18 19.0284C13.5345 19.0284 14.8586 18.6268 15.9848 17.8743C17.111 17.1218 17.9888 16.0522 18.5071 14.8008C19.0255 13.5494 19.1611 12.1724 18.8968 10.8439C18.6326 9.51547 17.9803 8.29519 17.0226 7.33742C16.0648 6.37965 14.8445 5.7274 13.5161 5.46315C12.1876 5.1989 10.8106 5.33453 9.55922 5.85287C8.30783 6.37121 7.23825 7.24899 6.48573 8.37521C5.73322 9.50143 5.33156 10.8255 5.33156 12.18Z" fill="#232321" stroke="#232321" stroke-width="0.046875"/>
</svg>
