<svg width="24" height="24" viewBox="0 0 24 24" fill="none" xmlns="http://www.w3.org/2000/svg">
<path d="M20.2506 22.4766H20.2503L3.75027 22.4766L3.74996 22.4766C3.53748 22.4793 3.32705 22.4347 3.13398 22.3459C2.94092 22.2571 2.77008 22.1264 2.63388 21.9633L2.63387 21.9632C2.33401 21.6048 2.21259 21.1146 2.30239 20.6179L2.3024 20.6179C2.69683 18.4298 3.92767 16.5916 5.86327 15.3008C7.58316 14.1546 9.76246 13.5234 12.0003 13.5234C14.2381 13.5234 16.4174 14.1551 18.1373 15.3008C20.0729 16.5912 21.3037 18.4293 21.6981 20.6174C21.7879 21.1142 21.6665 21.6043 21.3667 21.9628L21.3666 21.9628C21.2305 22.126 21.0597 22.2568 20.8666 22.3457C20.6735 22.4346 20.4631 22.4793 20.2506 22.4766ZM12.0003 1.52344C13.4003 1.52344 14.668 2.0633 15.5756 3.04311C16.4943 4.03505 16.9424 5.37056 16.8364 6.80358C16.6257 9.65898 14.4568 11.9766 12.0003 11.9766C9.54369 11.9766 7.3711 9.65849 7.16364 6.80268C7.05907 5.3564 7.50444 4.01811 8.41745 3.03375C9.3207 2.06009 10.5926 1.52344 12.0003 1.52344Z" fill="#232321" stroke="#232321" stroke-width="0.046875"/>
</svg>
